<?xml version="1.0" encoding="UTF-8"?>
<svg id="katman_2" xmlns="http://www.w3.org/2000/svg" viewBox="0 0 828.03 297.23">
  <defs>
    <style>
      .cls-1 {
        fill: #df2a2b;
      }

      .cls-2 {
        fill: #292725;
      }

      .cls-3 {
        fill: #e12428;
      }

      .cls-4 {
        fill: #f8f7f7;
      }

      .cls-5 {
        fill: #eeeded;
      }

      .cls-6 {
        fill: #e8e7e7;
      }

      .cls-7 {
        fill: #f2f1f2;
      }

      .cls-8 {
        fill: #2a2726;
      }

      .cls-9 {
        fill: #df2b2b;
      }

      .cls-10 {
        fill: #f7f6f6;
      }

      .cls-11 {
        fill: #21201d;
      }

      .cls-12 {
        fill: #faf9f9;
      }

      .cls-13 {
        fill: #df302e;
      }

      .cls-14 {
        fill: #363334;
      }

      .cls-15 {
        fill: #211924;
      }

      .cls-16 {
        fill: #f0eeef;
      }

      .cls-17 {
        fill: #f5f5f5;
      }

      .cls-18 {
        fill: #292624;
      }

      .cls-19 {
        fill: #e02b2b;
      }

      .cls-20 {
        fill: #e02a2b;
      }
    </style>
  </defs>
  <g id="katman_1">
    <path class="cls-3" d="M0,141.51c.99-5.08,1.84-10.2,2.98-15.25C16.43,67.06,52.62,29.22,111.14,13.38c26.96-7.3,54.06-5.1,80.56,3.7.61.2,1.13.64,2.09,1.19-4.32,3.24-8.49,6.19-12.48,9.37-9.35,7.45-19.05,14.53-27.77,22.67-5.64,5.27-11.85,7.59-19.06,9.45-17.9,4.6-35.57,10.05-53.34,15.16.14.58.27,1.16.41,1.74,16.25-1.91,32.5-3.83,48.75-5.74.2.44.41.88.61,1.33-19.44,21.43-36.42,44.64-50.74,69.72-14.32,25.09-25.98,51.38-34.21,79.52,1.17-1.46,2.51-2.82,3.49-4.4,14.73-23.74,31.33-46.12,49.25-67.54,21.45-25.63,44.7-49.55,69.2-72.27,2.04-1.89,3.75-2.56,6.57-1.44,15.1,6.04,20.29,16.13,14.3,34.87-5.43,16.98-18.19,28.66-31.72,39.36-6.35,5.02-13.21,9.38-19.45,13.77,7.43,2.56,15.3,4.65,22.63,7.92,11.82,5.27,21.54,13.15,26.44,25.69,6.64,16.98,2.12,33.72-12.59,47.15-11.39,10.39-25.02,16.73-39.36,21.82-21.95,7.79-44.4,11.37-67.64,7.65-17.65-2.82-33.13-10.3-47.63-23.32,4.5,1.15,7.64,1.94,10.79,2.75,3.34.86,6.68,1.74,11.12,2.91-.9-1.92-1.22-3.43-2.13-4.4-19.3-20.71-31.44-44.99-36.69-72.74-.87-4.6-1.71-9.21-2.57-13.82,0-7.98,0-15.96,0-23.93Z"/>
    <path class="cls-11" d="M819.98,205.33c1.1,27.65-23.72,55.31-51.27,55.75-43.75.7-87.51.57-131.27.71-27.93.09-55.86.01-83.79.01-73.87,0-147.74,0-221.61,0-4.78,0-9.56,0-15.94,0,1.76-7.55,2.59-14.76,5.13-21.31,8.39-21.67,29.85-36.09,53.02-36.1,147.29-.04,294.59-.02,441.88-.02.99,0,1.99.09,2.98.14.29.27.58.54.86.82ZM710.27,212.83c-.5-.39-1-.77-1.51-1.16-.84,1.19-2.4,2.36-2.42,3.56-.14,8.77-.05,17.55.19,26.33.03,1.17,1.3,2.31,2,3.46.6-1.11,1.53-2.16,1.73-3.33.44-2.49.5-5.05.8-8.62q10.94,12.08,14.31,11.22c-3.4-4.34-6.71-8.57-10.15-12.96,3.07-3.23,5.98-6.28,9.28-9.75-7.82-1.21-8.73,7.15-14.23,8.99v-17.74ZM468.61,233.1c-.04-7.49-4.13-12.18-10.62-12.19-6.65-.01-10.64,4.8-10.55,12.73.08,7.64,3.94,11.82,10.84,11.74,6.62-.08,10.38-4.55,10.33-12.28ZM577.09,240.3c.35,1.28.32,2.82,1.07,3.6,2.27,2.36,11.49,1.71,13.98-.76,3.93-3.92,2.81-9.03-2.45-10.92-1.7-.61-3.66-.65-5.18-1.51-1.24-.7-2.01-2.22-2.99-3.38,1.31-1.01,2.59-2.8,3.95-2.87,2.5-.12,5.05.76,8.39,1.38-.76-1.5-1.08-3.23-2.1-3.92-2.89-1.97-9.7-1.05-12.16,1.28-3.76,3.57-2.85,8.87,1.96,10.83,1.82.74,3.96.8,5.68,1.7,1.24.65,2.01,2.19,2.99,3.33-1.29,1.03-2.59,2.92-3.88,2.92-2.87-.01-5.73-.97-9.26-1.68ZM630.37,224.94c2.51-.26,4.87-.51,7.24-.75.12-.56.25-1.12.37-1.68-2.39-.56-4.79-1.13-7.62-1.8,0-1.04.25-2.38-.08-3.57-.27-1-1.21-1.83-1.86-2.73-.71.84-1.67,1.58-2.08,2.55-.9,2.12-1.53,4.36-1.91,5.47.79,2.76,1.59,4.59,1.8,6.49.46,4.23.2,8.58,1.01,12.73.79,4.01,4.45,3.93,7.64,3.54,1.05-.13,1.98-1.27,2.97-1.94-7.35-1.3-7.48-1.43-7.48-8.56,0-3.14,0-6.27,0-9.74ZM495.21,252.1c1.35.69,2.71,1.97,4.06,1.97,4.11-.01,7.51-2.46,7.77-6.29.58-8.67.18-17.4.18-27.05-3.32.72-5.86,1.27-8.4,1.82,1.31,1.07,2.61,2.15,4.47,3.68,0,4.63,0,10.07,0,15.5,0,7.8-.2,8.03-8.09,10.37ZM412.78,211.7c-.36.41-.73.83-1.09,1.24v32.05c.48.22.96.43,1.44.65.74-1.19,2.1-2.37,2.12-3.58.18-9.11.18-18.22-.02-27.33-.02-1.03-1.6-2.02-2.45-3.04ZM541.16,244.76c4.48-.28,4.91-2.56,3.98-19.59-.13-2.47-.19-4.91-3.98-3.44v23.02ZM672.55,232.9c0-2.98.15-5.98-.09-8.94-.08-.91-1.25-1.72-1.92-2.58-.55.79-1.55,1.57-1.57,2.37-.14,6.29-.14,12.59-.02,18.89.02.8,1.01,1.57,1.55,2.36.68-.72,1.91-1.4,1.96-2.16.22-3.3.09-6.62.09-9.94Z"/>
    <path class="cls-15" d="M189.11,57.33c24.94-19.49,49.15-38.41,73.36-57.33.47.51.94,1.02,1.42,1.52-9.84,12.71-19.68,25.42-29.71,38.39,31.28,25.71,49.99,58.21,54.38,98.32,3.66,33.42-3.79,64.5-21.82,92.88-34.57,54.41-96.39,72-136.01,64.47,2.38-.45,4.74-1.05,7.14-1.31,18.8-2.07,36.72-7.24,53.23-16.41,22.96-12.76,39.05-31.14,46.03-57.07,5.44-20.24-3.15-36.9-21.05-46.43-11.89-6.33-24.81-8.92-37.97-10.74-.61-.08-1.2-.22-.8-.14,8.86-6.44,18.25-13.13,27.5-20.01,13.35-9.92,18.76-23.92,18.6-39.86-.19-18.67-7.82-33.64-25.12-42.53-2.47-1.27-5.15-2.12-9.18-3.75Z"/>
    <path class="cls-20" d="M324.92,109.67c12,0,23.46-.36,34.89.11,10.53.43,16.69,5.92,18.32,15.03,1.4,7.85-3.07,14.73-13.06,19.48,6.91,3.16,11.55,7.82,11.14,15.6-.56,10.61-7.95,20.13-18.47,21.1-15.79,1.46-31.73,1.34-48.17,1.91,5.25-25.06,10.27-49,15.34-73.22ZM327.15,170.52c7.67,0,14.62.05,21.56-.04,1.46-.02,2.94-.46,4.37-.87,5.05-1.43,7.97-5.35,7.64-10.17-.36-5.13-3.78-7.37-8.27-7.6-7.07-.36-14.18-.1-21.47-.1-1.26,6.19-2.48,12.15-3.83,18.78ZM333.77,139.23c7.8-.5,15.23-.54,22.52-1.58,4.73-.68,7.52-5.19,7.02-9.43-.59-4.99-4.21-6.41-8.48-6.6-4.79-.21-9.61-.3-14.39,0-1.31.08-3.3,1.53-3.63,2.72-1.25,4.56-1.94,9.27-3.03,14.89Z"/>
    <path class="cls-1" d="M771.7,182.16h-14.91c5.1-24.33,10.14-48.38,15.18-72.43,13.48,0,26.62-.46,39.7.16,9.49.45,14.79,6.41,16.14,15.96,1.36,9.6-3.64,18.9-12.49,22.76-2.84,1.24-5.94,1.91-8.31,2.66,5.08,10.07,10.15,20.14,15.66,31.08-5.67,0-9.96.24-14.2-.15-1.27-.12-2.88-1.76-3.49-3.09-2.69-5.85-4.93-11.91-7.6-17.78-3.82-8.41-8.86-10.95-17.63-8.83-1.09.26-2.23,2.15-2.53,3.48-1.93,8.55-3.64,17.14-5.52,26.19ZM780.2,141.78c7.87-.49,15.15-.69,22.37-1.49,5.02-.56,8.31-3.82,9.91-8.64,1.6-4.81-.47-9.18-5.48-9.56-7.51-.56-15.1-.15-22.71-.15-1.34,6.51-2.63,12.77-4.09,19.84Z"/>
    <path class="cls-1" d="M531.14,109.43c-5.15,24.56-10.18,48.49-15.25,72.65h-14.82c2.19-10.73,4.35-21.28,6.62-32.4-9.16,0-17.77-.12-26.37.17-1.01.03-2.49,2.22-2.81,3.63-2.16,9.5-4.07,19.06-6.06,28.62h-14.9c5.08-24.26,10.1-48.22,15.16-72.4h14.87c-1.9,9.25-3.75,18.25-5.68,27.61h28.46c1.68-8.05,3.54-16.09,4.94-24.21.52-3,1.72-3.87,4.55-3.71,3.47.19,6.95.05,11.29.05Z"/>
    <path class="cls-19" d="M436.29,109.41c3.99,24.62,7.85,48.48,11.77,72.66h-14.03c-.86-5.28-1.68-10.31-2.57-15.79-9.09,0-18.03-.06-26.96.08-1.04.02-2.22,1.03-3.03,1.87-.78.8-1.35,1.93-1.7,3.01-3.3,10.36-10.41,13.48-21.06,10.35,2.43-4.42,4.96-9.11,7.59-13.75,10.36-18.3,20.84-36.53,31.03-54.93,1.55-2.8,3.21-3.7,6.19-3.56,4.11.2,8.25.05,12.78.05ZM409.35,153.72h20.38c-1.42-9.58-2.78-18.71-4.36-29.34-5.77,10.57-10.79,19.75-16.03,29.34Z"/>
    <path class="cls-1" d="M677.35,182.07c8.21-14.56,16.1-28.55,23.99-42.54,5.05-8.95,9.98-17.98,15.28-26.78.95-1.58,3.38-2.96,5.26-3.17,4.25-.47,8.6-.15,13.43-.15,3.94,24.26,7.84,48.26,11.79,72.61h-14.07c-.6-4.04-.97-8.31-2-12.42-.33-1.33-2.35-3.14-3.66-3.19-7.64-.3-15.31-.3-22.96-.02-1.55.06-3.1,1.7-4.54,2.75-.47.34-.57,1.17-.88,1.75q-6.54,12.21-21.65,11.15ZM724.71,126.15c-.36-.07-.72-.15-1.07-.22-5.02,9.11-10.04,18.22-15.32,27.81h20.4c-1.38-9.49-2.69-18.54-4.01-27.59Z"/>
    <path class="cls-20" d="M629.79,109.81q15.62-1.44,21.27,11.94c2.51,5.94,5.12,11.84,7.94,18.34,3.48-4.86,6.78-9.45,10.06-14.06,1.44-2.03,3.28-3.9,4.2-6.15,4.57-11.17,13.43-11.92,24.12-9.87-6.21,8.56-12.28,16.95-18.38,25.32-4.39,6.02-9.53,11.64-13.02,18.14-2.65,4.93-3.33,10.94-4.71,16.51-.95,3.84-1.61,7.76-2.47,11.99h-14.82c1.58-7.91,3.37-15.61,4.57-23.4.45-2.9.26-6.32-.88-8.97-5.66-13.2-11.73-26.23-17.88-39.8Z"/>
    <path class="cls-1" d="M562.93,182.1h-14.81c4.17-20.12,8.31-40.07,12.56-60.54h-21.25c.75-4.19,1.4-7.89,2.11-11.85h57.65c-.8,3.94-1.54,7.61-2.36,11.7h-21.08c-4.32,20.44-8.54,40.46-12.81,60.69Z"/>
    <path class="cls-9" d="M607.98,182.17h-14.94c5.12-24.35,10.17-48.37,15.23-72.47h14.9c-5.08,24.26-10.1,48.19-15.19,72.47Z"/>
    <path class="cls-2" d="M325.32,97.04c2.36-11.54,4.45-22.04,6.71-32.5.22-1.02,1.45-2.58,2.25-2.6,5.31-.16,10.66-.28,15.93.21,3.54.33,6.75,2.04,7.43,6.15.76,4.53-.75,8.05-3.83,9.29,1.03,3.69,2.77,6.92,2.61,10.05-.23,4.51-3.45,7.6-8.09,8.04-7.39.69-14.82.91-23.02,1.37ZM333.77,90.71c3.76,0,7.33.56,10.58-.21,2.01-.48,3.55-2.97,5.3-4.56-1.73-1.35-3.28-3.39-5.23-3.9-2.62-.68-5.54-.17-8.67-.17-.67,2.96-1.29,5.75-1.99,8.83ZM336.79,75.55c3.74,0,7.13.48,10.26-.21,1.47-.33,2.44-2.91,3.63-4.47-1.42-1.07-2.72-2.71-4.3-3.06-2.35-.52-4.91-.14-7.52-.14-.7,2.68-1.35,5.14-2.07,7.88Z"/>
    <path class="cls-18" d="M377.06,97.03c-8.93.03-14.53-5.63-14.44-14.61.13-12.89,9.21-21.88,21.13-20.93,6.31.5,10.38,3.78,12.21,9.83,3.67,12.13-6.28,25.67-18.91,25.72ZM389.49,74.37c-.97-1.42-2.21-4.37-4.41-6.14-2.88-2.3-6.39-1.31-9.14.86-4.78,3.78-6.59,9.16-6.01,14.94.64,6.33,6.53,8.86,12.15,5.75,5.44-3,6.59-8.24,7.41-15.42Z"/>
    <path class="cls-8" d="M442.82,60.69c-1.89,8.5-3.35,15.09-4.83,21.67-.78,3.45-1.97,6.98,2.94,8.47,4.54,1.38,9.14-.48,10.51-4.96,1.67-5.5,2.74-11.18,4.01-16.8.51-2.24.89-4.51,1.38-7.01h7.76c-2.67,9.76-4.45,19.46-8.04,28.43-2.9,7.24-16.98,9.19-22.65,3.77-1.92-1.83-3.67-5.26-3.39-7.71.88-7.68,2.45-15.32,4.54-22.76.4-1.42,4.4-1.82,7.78-3.09Z"/>
    <path class="cls-2" d="M405.6,62.01h7.09c-1.96,9.59-3.87,18.89-5.86,28.58h17.2c-.27,2.03-.49,3.74-.75,5.73h-24.91c2.45-11.61,4.85-22.99,7.23-34.31Z"/>
    <path class="cls-13" d="M623.88,102.84h-14.33c.98-4.49,1.88-8.61,2.8-12.85h13.97c-.84,4.4-1.62,8.52-2.44,12.85Z"/>
    <path class="cls-14" d="M819.98,205.33c-.29-.27-.58-.54-.86-.82.29.27.58.54.86.82Z"/>
    <path class="cls-16" d="M710.27,212.83v17.74c5.51-1.84,6.41-10.2,14.23-8.99-3.3,3.47-6.21,6.52-9.28,9.75,3.44,4.39,6.75,8.62,10.15,12.96q-3.38.86-14.31-11.22c-.3,3.58-.37,6.13-.8,8.62-.21,1.18-1.13,2.23-1.73,3.33-.7-1.15-1.97-2.29-2-3.46-.24-8.77-.33-17.55-.19-26.33.02-1.2,1.57-2.38,2.42-3.56.5.39,1,.77,1.51,1.16Z"/>
    <path class="cls-4" d="M468.61,233.1c.04,7.73-3.72,12.2-10.33,12.28-6.9.08-10.75-4.1-10.84-11.74-.09-7.93,3.9-12.74,10.55-12.73,6.49.01,10.58,4.7,10.62,12.19ZM451.4,232.33c.16,1.89.13,3.07.38,4.19.75,3.31,2.2,5.73,6.25,5.74,4.14,0,5.77-2.69,6.12-5.86.34-3-.01-6.33-1.09-9.12-.56-1.44-3.36-2.78-5.14-2.77-1.77.01-4,1.41-5.15,2.88-1.1,1.4-1.07,3.69-1.37,4.93Z"/>
    <path class="cls-17" d="M577.09,240.3c3.54.71,6.4,1.67,9.26,1.68,1.29,0,2.59-1.89,3.88-2.92-.98-1.14-1.75-2.68-2.99-3.33-1.71-.9-3.85-.95-5.68-1.7-4.81-1.96-5.72-7.27-1.96-10.83,2.46-2.34,9.27-3.26,12.16-1.28,1.02.7,1.34,2.43,2.1,3.92-3.34-.61-5.89-1.5-8.39-1.38-1.36.07-2.64,1.86-3.95,2.87.98,1.16,1.75,2.69,2.99,3.38,1.53.86,3.49.9,5.18,1.51,5.27,1.89,6.38,7,2.45,10.92-2.48,2.48-11.71,3.13-13.98.76-.75-.78-.72-2.32-1.07-3.6Z"/>
    <path class="cls-10" d="M630.37,224.94c0,3.47,0,6.61,0,9.74,0,7.13.13,7.27,7.48,8.56-.99.68-1.91,1.81-2.97,1.94-3.19.39-6.86.46-7.64-3.54-.81-4.15-.55-8.5-1.01-12.73-.2-1.9-1.01-3.73-1.8-6.49.37-1.11,1-3.35,1.91-5.47.41-.97,1.37-1.71,2.08-2.55.65.9,1.59,1.72,1.86,2.73.33,1.19.08,2.53.08,3.57,2.83.67,5.22,1.23,7.62,1.8-.12.56-.25,1.12-.37,1.68-2.36.24-4.73.49-7.24.75Z"/>
    <path class="cls-7" d="M495.21,252.1c7.89-2.33,8.08-2.56,8.09-10.37,0-5.44,0-10.87,0-15.5-1.86-1.53-3.17-2.6-4.47-3.68,2.54-.55,5.07-1.1,8.4-1.82,0,9.65.4,18.38-.18,27.05-.26,3.83-3.66,6.27-7.77,6.29-1.35,0-2.71-1.27-4.06-1.97Z"/>
    <path class="cls-5" d="M412.78,211.7c.85,1.01,2.43,2.01,2.45,3.04.2,9.11.2,18.22.02,27.33-.02,1.21-1.38,2.39-2.12,3.58-.48-.22-.96-.43-1.44-.65v-32.05c.36-.41.73-.83,1.09-1.24Z"/>
    <path class="cls-6" d="M541.16,244.76v-23.02c3.79-1.47,3.85.97,3.98,3.44.93,17.02.5,19.31-3.98,19.59Z"/>
    <path class="cls-12" d="M672.55,232.9c0,3.31.13,6.64-.09,9.94-.05.76-1.27,1.44-1.96,2.16-.54-.79-1.54-1.56-1.55-2.36-.12-6.29-.12-12.59.02-18.89.02-.8,1.02-1.58,1.57-2.37.67.86,1.84,1.67,1.92,2.58.25,2.96.09,5.96.09,8.94Z"/>
    <path class="cls-8" d="M451.4,232.33c.3-1.24.27-3.53,1.37-4.93,1.15-1.47,3.38-2.87,5.15-2.88,1.78-.01,4.58,1.33,5.14,2.77,1.08,2.79,1.43,6.12,1.09,9.12-.36,3.17-1.99,5.86-6.12,5.86-4.05,0-5.5-2.43-6.25-5.74-.25-1.12-.22-2.3-.38-4.19Z"/>
  </g>
</svg>